<?xml version="1.0" encoding="UTF-8" standalone="no"?>
<!-- Created with Inkscape (http://www.inkscape.org/) -->

<svg
   width="210mm"
   height="297mm"
   viewBox="0 0 210 297"
   version="1.1"
   id="svg1"
   xml:space="preserve"
   inkscape:version="1.4 (86a8ad7, 2024-10-11)"
   sodipodi:docname="inomeado.svg"
   xmlns:inkscape="http://www.inkscape.org/namespaces/inkscape"
   xmlns:sodipodi="http://sodipodi.sourceforge.net/DTD/sodipodi-0.dtd"
   xmlns="http://www.w3.org/2000/svg"
   xmlns:svg="http://www.w3.org/2000/svg"><sodipodi:namedview
     id="namedview1"
     pagecolor="#ffffff"
     bordercolor="#000000"
     borderopacity="0.25"
     inkscape:showpageshadow="2"
     inkscape:pageopacity="0.0"
     inkscape:pagecheckerboard="0"
     inkscape:deskcolor="#d1d1d1"
     inkscape:document-units="mm"
     inkscape:zoom="1.0393815"
     inkscape:cx="528.19875"
     inkscape:cy="213.10751"
     inkscape:window-width="1920"
     inkscape:window-height="1027"
     inkscape:window-x="-8"
     inkscape:window-y="-8"
     inkscape:window-maximized="1"
     inkscape:current-layer="layer1"
     showguides="true" /><defs
     id="defs1" /><g
     inkscape:label="Camada 1"
     inkscape:groupmode="layer"
     id="layer1"><path
       style="display:inline;fill:#000000;stroke:#000000;stroke-width:1.7203;stroke-linejoin:bevel;stroke-dasharray:none;stroke-opacity:1"
       d="m 160.44068,294.5972 c -3.05824,-2.17029 -3.26386,-7.81455 -4.09165,-112.30818 C 155.48919,73.747541 155.42802,72.201703 151.80879,67.489179 145.04271,58.679295 137.90123,55.962494 122.36765,56.289163 82.980214,57.117388 46.567385,73.452891 29.280075,98.049956 20.054224,111.17691 16.401048,123.58329 16.262855,142.25689 c -0.148545,20.06031 3.858322,34.68163 14.083738,51.39383 7.709659,12.60046 23.903707,27.87916 36.603305,34.53427 10.305063,5.39996 32.768205,11.38696 42.726042,11.38696 9.08555,0 13.55223,2.54351 13.55223,7.71744 0,7.09537 -6.68139,8.33434 -27.019678,5.00959 C 59.001436,246.21912 29.941191,225.83258 13.649391,194.38255 -5.9383184,156.56987 -2.8342312,111.66858 21.348284,83.016503 34.155909,67.8417 57.697209,53.966424 83.134468,46.599732 95.034207,43.153543 100.86815,42.740528 148.0867,42.001933 c 45.94716,-0.718752 52.37439,-0.495704 56.21836,1.949176 2.38723,1.518795 4.34011,3.450479 4.34011,4.293643 0,3.201303 -5.26396,6.424286 -12.26845,7.511814 -10.17529,1.579356 -16.94966,5.365162 -20.92306,11.692118 -3.28081,5.22399 -3.4035,9.28756 -3.40906,113.422326 -0.005,66.69603 -0.65486,109.17999 -1.70155,111.07856 -2.38128,4.31979 -6.13253,5.3225 -9.90237,2.64763 z"
       id="path27" /><path
       style="fill:#000000;stroke:#000000;stroke-width:1.68765;stroke-linejoin:bevel;stroke-dasharray:none;stroke-opacity:1"
       d="m 155.97354,22.083932 c -7.05398,-4.632312 -6.70186,-12.1761817 0.81479,-17.4564904 7.25788,-5.09858105 9.9749,-5.01434958 16.59746,0.514483 6.65211,5.5535994 6.95413,11.2695894 0.86407,16.3539324 -5.53182,4.61825 -11.83066,4.82091 -18.27632,0.588075 z"
       id="path28" /></g></svg>
