<svg version="1.1" id="Layer_1" xmlns="http://www.w3.org/2000/svg" xmlns:xlink="http://www.w3.org/1999/xlink" x="0px" y="0px"
	 width="100%" viewBox="0 0 546 822" enable-background="new 0 0 546 822" xml:space="preserve">
<path fill="#FEFEFE" opacity="1.000000" stroke="none" 
	d="
M422.000000,823.000000 
	C281.741669,823.000000 141.483322,823.000000 1.000000,823.000000 
	C1.000000,695.310120 1.000000,567.620056 1.415172,439.355835 
	C2.184663,439.477783 2.713475,440.137421 2.867818,440.875427 
	C6.880416,460.061035 9.834258,479.536682 15.045541,498.388763 
	C26.096123,538.364868 45.507370,574.218140 71.999077,606.158936 
	C75.424217,610.288513 79.494751,613.882874 83.450195,617.877197 
	C83.874153,618.241455 84.081367,618.481934 84.167099,619.094727 
	C87.359406,622.873535 90.473846,626.490295 93.970169,629.689758 
	C97.167671,632.615784 100.778152,635.090454 104.124176,637.858398 
	C104.041702,637.952698 104.230484,637.787903 104.215714,638.132507 
	C105.266586,639.521790 106.285614,640.619568 107.404716,641.603455 
	C134.815399,665.701233 166.267334,683.148682 200.729797,694.237305 
	C228.709183,703.239990 257.713470,709.035156 287.143097,711.499023 
	C297.758209,712.387756 308.515015,711.811707 318.171997,706.167969 
	C332.896729,697.562622 333.911133,680.020935 320.211548,669.928772 
	C312.127441,663.973267 302.509827,663.242432 293.042267,663.261902 
	C263.601013,663.322449 235.568466,655.978271 208.364105,646.047974 
	C172.606857,632.995850 142.216827,611.367859 116.519485,583.227112 
	C115.453911,582.060242 114.046066,581.205933 112.891808,580.118042 
	C112.985924,580.030090 112.782433,580.187866 112.851334,579.841125 
	C107.018806,571.890625 100.690956,564.576660 95.292351,556.631226 
	C75.606361,527.658325 63.001476,495.541870 54.845749,461.674011 
	C48.496845,435.309235 49.051174,408.329987 51.892998,381.746277 
	C55.838974,344.833649 69.396210,311.285431 93.203201,282.296478 
	C94.730179,280.437134 95.848679,278.242310 97.140358,276.164001 
	C97.123512,276.124420 97.207237,276.144104 97.550255,276.154175 
	C99.516861,274.040619 101.140442,271.916992 102.857590,269.874756 
	C102.951164,269.956207 102.788422,269.768951 103.132416,269.785583 
	C107.037804,265.945618 110.599190,262.089050 114.154999,258.192780 
	C114.149422,258.153076 114.228806,258.164276 114.577644,258.194641 
	C118.863754,254.734879 122.801018,251.244766 126.817764,247.832855 
	C126.897240,247.911072 126.776184,247.723770 127.106354,247.822357 
	C127.967911,247.293259 128.499298,246.665588 128.996857,246.031601 
	C128.963043,246.025284 128.958191,245.956635 129.313583,246.038849 
	C130.933456,245.329681 132.265121,244.627487 133.452316,243.733444 
	C150.304977,231.042450 168.677689,220.912750 187.932190,212.511398 
	C236.907104,191.142075 288.619080,183.819092 341.550018,185.023544 
	C362.236633,185.494293 380.417786,193.835938 393.099426,211.366058 
	C402.235504,223.995056 404.196594,238.635437 404.288727,253.635986 
	C404.444275,278.954620 404.331665,304.274902 404.331665,329.594482 
	C404.331696,477.185394 404.328003,624.776306 404.343201,772.367188 
	C404.343903,779.193420 404.308777,786.029968 404.651611,792.843506 
	C405.174469,803.235779 408.603058,812.378540 417.079437,819.065369 
	C418.728271,820.366028 420.360260,821.687927 422.000000,823.000000 
z"/>
<path fill="#FEFEFE" opacity="1.000000" stroke="none" 
	d="
M437.000000,0.999999 
	C473.605591,1.000000 510.211182,1.000000 547.000000,1.000000 
	C547.000000,51.687412 547.000000,102.375046 546.659058,153.462036 
	C541.250793,145.444305 533.569702,140.768784 524.106140,139.298080 
	C517.554199,138.279861 510.862579,137.765991 504.229675,137.731155 
	C474.078491,137.572830 443.925385,137.540283 413.774170,137.695694 
	C371.470306,137.913727 329.131256,136.430099 286.896210,140.279404 
	C262.507843,142.502167 238.373993,145.292450 214.734314,152.721848 
	C190.976456,160.188400 167.790161,168.675339 145.669388,180.065201 
	C144.299011,180.770813 143.183136,181.970703 141.781555,183.036926 
	C141.614258,183.133224 141.245819,183.248474 140.884796,183.125488 
	C111.913597,197.478363 86.769829,216.552399 64.966461,240.039337 
	C64.495026,240.547165 64.493156,241.490906 64.257355,242.236404 
	C64.242493,242.241516 64.238472,242.272827 63.895718,242.233887 
	C57.704300,249.180542 51.537212,255.926178 46.061344,263.192719 
	C20.528915,297.074585 9.596634,336.498352 3.055085,377.561676 
	C2.860071,378.785858 1.706600,379.857330 1.000000,381.000000 
	C1.000000,254.402695 1.000000,127.805389 1.000000,1.000000 
	C140.354156,1.000000 279.708435,1.000000 419.651917,1.362028 
	C414.512970,5.677618 408.306274,9.094378 403.151031,13.690558 
	C390.324554,25.126137 386.875824,41.557339 393.578796,55.794636 
	C400.766541,71.061646 417.270752,79.861977 434.277588,77.495972 
	C450.746368,75.204849 463.646454,63.125648 466.254913,46.906929 
	C468.907166,30.415541 461.602539,18.257208 448.583679,8.930223 
	C444.780609,6.205610 440.864380,3.639019 437.000000,0.999999 
z"/>
<path fill="#FFFFFF" opacity="1.000000" stroke="none" 
	d="
M547.000000,168.000000 
	C547.000000,386.209930 547.000000,604.419861 547.000000,823.000000 
	C510.644867,823.000000 474.288452,823.000000 437.401978,822.641907 
	C448.300018,814.870911 452.632355,803.885925 452.751831,790.770996 
	C452.788269,786.772949 452.918427,782.775269 452.917267,778.777466 
	C452.893219,694.136536 452.842529,609.495667 452.826050,524.854736 
	C452.808868,436.544678 452.803162,348.234589 452.857300,259.924561 
	C452.861786,252.605042 453.139557,245.269516 453.676208,237.969788 
	C454.899628,221.328720 461.920288,207.548340 475.074463,197.199692 
	C485.221771,189.216629 497.253296,186.115662 509.850464,184.642548 
	C515.625244,183.967255 521.393738,183.083725 527.089783,181.924683 
	C535.674255,180.177917 541.355896,174.066727 547.000000,168.000000 
z"/>
<path fill="#050505" opacity="1.000000" stroke="none" 
	d="
M436.532410,0.999999 
	C440.864380,3.639019 444.780609,6.205610 448.583679,8.930223 
	C461.602539,18.257208 468.907166,30.415541 466.254913,46.906929 
	C463.646454,63.125648 450.746368,75.204849 434.277588,77.495972 
	C417.270752,79.861977 400.766541,71.061646 393.578796,55.794636 
	C386.875824,41.557339 390.324554,25.126137 403.151031,13.690558 
	C408.306274,9.094378 414.512970,5.677618 420.120544,1.362028 
	C425.354919,1.000000 430.709869,1.000000 436.532410,0.999999 
z"/>
<path fill="#808080" opacity="1.000000" stroke="none" 
	d="
M547.000000,167.535355 
	C541.355896,174.066727 535.674255,180.177917 527.089783,181.924683 
	C521.393738,183.083725 515.625244,183.967255 509.850464,184.642548 
	C497.253296,186.115662 485.221771,189.216629 475.074463,197.199692 
	C461.920288,207.548340 454.899628,221.328720 453.676208,237.969788 
	C453.139557,245.269516 452.861786,252.605042 452.857300,259.924561 
	C452.803162,348.234589 452.808868,436.544678 452.826050,524.854736 
	C452.842529,609.495667 452.893219,694.136536 452.917267,778.777466 
	C452.918427,782.775269 452.788269,786.772949 452.751831,790.770996 
	C452.632355,803.885925 448.300018,814.870911 436.935913,822.641907 
	C432.310760,823.000000 427.621490,823.000000 422.466125,823.000000 
	C420.360260,821.687927 418.728271,820.366028 417.079437,819.065369 
	C408.603058,812.378540 405.174469,803.235779 404.651611,792.843506 
	C404.308777,786.029968 404.343903,779.193420 404.343201,772.367188 
	C404.328003,624.776306 404.331696,477.185394 404.331665,329.594482 
	C404.331665,304.274902 404.444275,278.954620 404.288727,253.635986 
	C404.196594,238.635437 402.235504,223.995056 393.099426,211.366058 
	C380.417786,193.835938 362.236633,185.494293 341.550018,185.023544 
	C288.619080,183.819092 236.907104,191.142075 187.932190,212.511398 
	C168.677689,220.912750 150.304977,231.042450 133.452316,243.733444 
	C132.265121,244.627487 130.933456,245.329681 129.318085,245.697388 
	C161.054245,219.962097 197.751205,204.024612 236.981903,194.162857 
	C268.047180,186.353729 299.917297,183.098190 331.992218,182.583481 
	C343.412842,182.400208 354.499329,184.089294 365.235168,188.313965 
	C391.029144,198.464172 404.050507,217.764297 405.470062,244.926910 
	C406.243103,259.718597 405.832581,274.575745 405.836121,289.403412 
	C405.874298,450.213074 405.877655,611.022766 405.941895,771.832397 
	C405.945160,779.985413 406.189117,788.153809 406.741699,796.286499 
	C407.205292,803.109497 409.881348,809.213440 414.567505,814.286255 
	C423.962524,824.456665 435.971771,823.839355 444.445312,812.904846 
	C450.807831,804.694458 451.233307,795.048401 451.244507,785.333191 
	C451.311005,727.677856 451.345490,670.022583 451.341034,612.367249 
	C451.331940,493.885468 451.277405,375.403717 451.299927,256.921936 
	C451.301208,250.101486 451.478638,243.245911 452.169159,236.467300 
	C454.301117,215.537186 464.561096,199.897690 483.359985,190.142593 
	C493.150604,185.062057 503.814453,183.339264 514.650269,182.301208 
	C522.490601,181.550125 530.167603,180.205704 536.778748,175.393051 
	C548.536194,166.834061 548.265381,153.875397 536.111145,145.840378 
	C529.628601,141.554840 522.307434,139.923523 514.734680,139.904617 
	C453.412598,139.751526 392.083679,139.191864 330.771027,139.931290 
	C305.183136,140.239883 279.464172,142.167953 254.102921,145.577332 
	C223.307205,149.717316 193.897263,159.683990 165.517883,172.445648 
	C157.674438,175.972702 149.805878,179.443817 141.948853,182.940613 
	C143.183136,181.970703 144.299011,180.770813 145.669388,180.065201 
	C167.790161,168.675339 190.976456,160.188400 214.734314,152.721848 
	C238.373993,145.292450 262.507843,142.502167 286.896210,140.279404 
	C329.131256,136.430099 371.470306,137.913727 413.774170,137.695694 
	C443.925385,137.540283 474.078491,137.572830 504.229675,137.731155 
	C510.862579,137.765991 517.554199,138.279861 524.106140,139.298080 
	C533.569702,140.768784 541.250793,145.444305 546.659058,153.930695 
	C547.000000,158.356903 547.000000,162.713806 547.000000,167.535355 
z"/>
<path fill="#9A9A9A" opacity="1.000000" stroke="none" 
	d="
M1.000000,381.375000 
	C1.706600,379.857330 2.860071,378.785858 3.055085,377.561676 
	C9.596634,336.498352 20.528915,297.074585 46.061344,263.192719 
	C51.537212,255.926178 57.704300,249.180542 63.916248,242.580414 
	C63.673424,243.755524 63.124596,244.597916 62.453007,245.327255 
	C25.268974,285.708221 9.370691,334.902466 3.806122,388.189362 
	C0.609362,418.801849 4.760348,448.773590 11.628472,478.743439 
	C21.735369,522.846069 40.099564,562.702576 67.854073,598.320862 
	C72.930939,604.836182 78.125885,611.259460 83.266327,617.725159 
	C79.494751,613.882874 75.424217,610.288513 71.999077,606.158936 
	C45.507370,574.218140 26.096123,538.364868 15.045541,498.388763 
	C9.834258,479.536682 6.880416,460.061035 2.867818,440.875427 
	C2.713475,440.137421 2.184663,439.477783 1.415172,438.890808 
	C1.000000,438.555542 1.000000,438.111115 1.404180,437.220642 
	C1.538907,434.183075 1.269453,431.591522 1.000000,429.000000 
	C1.000000,416.979095 1.000000,404.958221 1.329130,392.236084 
	C1.438839,389.023224 1.219420,386.511597 1.000000,384.000000 
	C1.000000,383.250000 1.000000,382.500000 1.000000,381.375000 
z"/>
<path fill="#FEFEFE" opacity="1.000000" stroke="none" 
	d="
M1.000000,384.444153 
	C1.219420,386.511597 1.438839,389.023224 1.329130,391.767395 
	C1.000000,389.629425 1.000000,387.258881 1.000000,384.444153 
z"/>
<path fill="#FEFEFE" opacity="1.000000" stroke="none" 
	d="
M1.000000,429.444153 
	C1.269453,431.591522 1.538907,434.183075 1.404180,436.887299 
	C1.000000,434.629425 1.000000,432.258881 1.000000,429.444153 
z"/>
<path fill="#020202" opacity="1.000000" stroke="none" 
	d="
M83.450188,617.877197 
	C78.125885,611.259460 72.930939,604.836182 67.854073,598.320862 
	C40.099564,562.702576 21.735369,522.846069 11.628472,478.743439 
	C4.760348,448.773590 0.609362,418.801849 3.806122,388.189362 
	C9.370691,334.902466 25.268974,285.708221 62.453007,245.327255 
	C63.124596,244.597916 63.673424,243.755524 64.259003,242.619354 
	C64.238472,242.272827 64.242493,242.241516 64.598824,242.236511 
	C82.797295,223.303314 102.558372,206.739502 124.948448,193.389923 
	C130.443146,190.113846 135.816620,186.634415 141.245819,183.248474 
	C141.245819,183.248474 141.614258,183.133224 141.781555,183.036926 
	C149.805878,179.443817 157.674438,175.972702 165.517883,172.445648 
	C193.897263,159.683990 223.307205,149.717316 254.102921,145.577332 
	C279.464172,142.167953 305.183136,140.239883 330.771027,139.931290 
	C392.083679,139.191864 453.412598,139.751526 514.734680,139.904617 
	C522.307434,139.923523 529.628601,141.554840 536.111145,145.840378 
	C548.265381,153.875397 548.536194,166.834061 536.778748,175.393051 
	C530.167603,180.205704 522.490601,181.550125 514.650269,182.301208 
	C503.814453,183.339264 493.150604,185.062057 483.359985,190.142593 
	C464.561096,199.897690 454.301117,215.537186 452.169159,236.467300 
	C451.478638,243.245911 451.301208,250.101486 451.299927,256.921936 
	C451.277405,375.403717 451.331940,493.885468 451.341034,612.367249 
	C451.345490,670.022583 451.311005,727.677856 451.244507,785.333191 
	C451.233307,795.048401 450.807831,804.694458 444.445312,812.904846 
	C435.971771,823.839355 423.962524,824.456665 414.567505,814.286255 
	C409.881348,809.213440 407.205292,803.109497 406.741699,796.286499 
	C406.189117,788.153809 405.945160,779.985413 405.941895,771.832397 
	C405.877655,611.022766 405.874298,450.213074 405.836121,289.403412 
	C405.832581,274.575745 406.243103,259.718597 405.470062,244.926910 
	C404.050507,217.764297 391.029144,198.464172 365.235168,188.313965 
	C354.499329,184.089294 343.412842,182.400208 331.992218,182.583481 
	C299.917297,183.098190 268.047180,186.353729 236.981903,194.162857 
	C197.751205,204.024612 161.054245,219.962097 128.962692,245.615173 
	C128.958191,245.956635 128.963043,246.025284 128.676376,245.943604 
	C127.851868,246.482544 127.314026,247.103149 126.776184,247.723770 
	C126.776184,247.723770 126.897240,247.911072 126.467361,247.804184 
	C122.101257,251.186279 118.165031,254.675278 114.228806,258.164276 
	C114.228806,258.164276 114.149422,258.153076 113.814293,258.166687 
	C109.915581,262.043182 106.351997,265.906067 102.788422,269.768951 
	C102.788422,269.768951 102.951164,269.956207 102.516785,269.879089 
	C100.457352,271.915985 98.832298,274.030060 97.207245,276.144104 
	C97.207237,276.144104 97.123512,276.124420 96.799744,276.175018 
	C68.723648,307.394348 53.303291,344.226471 49.852112,385.379608 
	C47.282806,416.016907 47.692101,446.721985 57.058186,476.892487 
	C66.368179,506.882263 78.586891,535.247009 96.459129,561.031738 
	C101.214485,567.892395 107.304947,573.827698 112.782425,580.187866 
	C112.782433,580.187866 112.985924,580.030090 112.859596,580.466675 
	C139.326797,612.161499 172.123215,634.770447 210.556076,648.610107 
	C237.699722,658.384521 265.679443,665.140198 294.957245,665.085876 
	C301.769562,665.073242 308.934937,666.669922 315.311829,669.141357 
	C323.035767,672.134949 327.931213,678.563477 328.067017,687.265137 
	C328.200500,695.815674 323.232574,701.526855 316.052399,705.430542 
	C308.307343,709.641418 299.796143,709.999207 291.267700,709.795654 
	C263.902191,709.142517 237.385712,702.528931 211.277573,695.649963 
	C175.062531,686.108032 142.403351,668.360718 113.260834,644.537659 
	C110.353981,642.161438 107.245422,640.031921 104.230484,637.787903 
	C104.230484,637.787903 104.041702,637.952698 104.119965,637.517456 
	C97.550713,630.971680 90.903198,624.861206 84.255692,618.750732 
	C84.081367,618.481934 83.874153,618.241455 83.450188,617.877197 
z"/>
<path fill="#9A9A9A" opacity="1.000000" stroke="none" 
	d="
M104.215706,638.132507 
	C107.245422,640.031921 110.353981,642.161438 113.260834,644.537659 
	C142.403351,668.360718 175.062531,686.108032 211.277573,695.649963 
	C237.385712,702.528931 263.902191,709.142517 291.267700,709.795654 
	C299.796143,709.999207 308.307343,709.641418 316.052399,705.430542 
	C323.232574,701.526855 328.200500,695.815674 328.067017,687.265137 
	C327.931213,678.563477 323.035767,672.134949 315.311829,669.141357 
	C308.934937,666.669922 301.769562,665.073242 294.957245,665.085876 
	C265.679443,665.140198 237.699722,658.384521 210.556076,648.610107 
	C172.123215,634.770447 139.326797,612.161499 112.765480,580.554626 
	C114.046066,581.205933 115.453911,582.060242 116.519485,583.227112 
	C142.216827,611.367859 172.606857,632.995850 208.364105,646.047974 
	C235.568466,655.978271 263.601013,663.322449 293.042267,663.261902 
	C302.509827,663.242432 312.127441,663.973267 320.211548,669.928772 
	C333.911133,680.020935 332.896729,697.562622 318.171997,706.167969 
	C308.515015,711.811707 297.758209,712.387756 287.143097,711.499023 
	C257.713470,709.035156 228.709183,703.239990 200.729797,694.237305 
	C166.267334,683.148682 134.815399,665.701233 107.404716,641.603455 
	C106.285614,640.619568 105.266586,639.521790 104.215706,638.132507 
z"/>
<path fill="#9A9A9A" opacity="1.000000" stroke="none" 
	d="
M112.851334,579.841125 
	C107.304947,573.827698 101.214485,567.892395 96.459129,561.031738 
	C78.586891,535.247009 66.368179,506.882263 57.058186,476.892487 
	C47.692101,446.721985 47.282806,416.016907 49.852112,385.379608 
	C53.303291,344.226471 68.723648,307.394348 96.816589,276.214600 
	C95.848679,278.242310 94.730179,280.437134 93.203201,282.296478 
	C69.396210,311.285431 55.838974,344.833649 51.892998,381.746277 
	C49.051174,408.329987 48.496845,435.309235 54.845749,461.674011 
	C63.001476,495.541870 75.606361,527.658325 95.292351,556.631226 
	C100.690956,564.576660 107.018806,571.890625 112.851334,579.841125 
z"/>
<path fill="#9A9A9A" opacity="1.000000" stroke="none" 
	d="
M84.167099,619.094727 
	C90.903198,624.861206 97.550713,630.971680 104.202438,637.423096 
	C100.778152,635.090454 97.167671,632.615784 93.970169,629.689758 
	C90.473846,626.490295 87.359406,622.873535 84.167099,619.094727 
z"/>
<path fill="#9A9A9A" opacity="1.000000" stroke="none" 
	d="
M103.132416,269.785583 
	C106.351997,265.906067 109.915581,262.043182 113.819870,258.206421 
	C110.599190,262.089050 107.037804,265.945618 103.132416,269.785583 
z"/>
<path fill="#9A9A9A" opacity="1.000000" stroke="none" 
	d="
M114.577637,258.194641 
	C118.165031,254.675278 122.101257,251.186279 126.387886,247.725967 
	C122.801018,251.244766 118.863754,254.734879 114.577637,258.194641 
z"/>
<path fill="#9A9A9A" opacity="1.000000" stroke="none" 
	d="
M97.550262,276.154175 
	C98.832298,274.030060 100.457352,271.915985 102.423218,269.797638 
	C101.140442,271.916992 99.516861,274.040619 97.550262,276.154175 
z"/>
<path fill="#9A9A9A" opacity="1.000000" stroke="none" 
	d="
M127.106354,247.822357 
	C127.314026,247.103149 127.851868,246.482544 128.710205,245.949921 
	C128.499298,246.665588 127.967911,247.293259 127.106354,247.822357 
z"/>
<path fill="#9A9A9A" opacity="1.000000" stroke="none" 
	d="
M140.884796,183.125488 
	C135.816620,186.634415 130.443146,190.113846 124.948448,193.389923 
	C102.558372,206.739502 82.797295,223.303314 64.613693,242.231400 
	C64.493156,241.490906 64.495026,240.547165 64.966461,240.039337 
	C86.769829,216.552399 111.913597,197.478363 140.884796,183.125488 
z"/>
</svg>